<?xml version="1.0" encoding="UTF-8"?>
<!DOCTYPE svg PUBLIC "-//W3C//DTD SVG 1.1//EN" "http://www.w3.org/Graphics/SVG/1.1/DTD/svg11.dtd">
<!-- Creator: CorelDRAW X7 -->
<svg xmlns="http://www.w3.org/2000/svg" xml:space="preserve" width="0.291047in" height="0.291047in" version="1.1" style="shape-rendering:geometricPrecision; text-rendering:geometricPrecision; image-rendering:optimizeQuality; fill-rule:evenodd; clip-rule:evenodd"
viewBox="0 0 291 291"
 xmlns:xlink="http://www.w3.org/1999/xlink">
 <defs>
  <style type="text/css">
   <![CDATA[
    .fil0 {fill:black}
   ]]>
  </style>
 </defs>
 <g id="Layer_x0020_1">
  <metadata id="CorelCorpID_0Corel-Layer"/>
  <path class="fil0" d="M29 29c39,-39 102,-39 140,0 36,36 39,92 8,131l22 21c6,-4 15,-3 20,2l68 68c16,16 -20,52 -36,36l-68 -68c-5,-5 -6,-14 -2,-20l-21 -22c-39,31 -95,28 -131,-8 -39,-38 -39,-101 0,-140zm21 99c4,7 -8,14 -12,6 -28,-47 8,-106 61,-106 9,0 9,14 0,14 -1,0 -2,0 -4,0 -41,3 -66,48 -45,86l0 0zm-8 -86c32,-31 83,-31 114,0 31,32 31,83 0,114 -31,31 -82,31 -114,0 -31,-31 -31,-82 0,-114z"/>
 </g>
</svg>
